2014001_C5_01_grf
version=1
nRows=21
nColumns=19
inDegrees=no
endheader
time	ground_force_1_vx	ground_force_1_vy	ground_force_1_vz	ground_force_1_px	ground_force_1_py	ground_force_1_pz	ground_force_1_mx	ground_force_1_my	ground_force_1_mz	ground_force_2_vx	ground_force_2_vy	ground_force_2_vz	ground_force_2_px	ground_force_2_py	ground_force_2_pz	ground_force_2_mx	ground_force_2_my	ground_force_2_mz
      0.31200000	      0.40802192	    258.56215507	     34.33744311	      0.09278536	     -0.00200000	     -0.28684179	      0.00000000	     -1.43944752	      0.00000000	      0.00000000	      0.00000000	      0.00000000	      0.00000000	      0.00000000	      0.00000000	      0.00000000	      0.00000000	      0.00000000
      0.31300000	      0.26754826	    259.99826379	     34.01930630	      0.09473900	     -0.00200000	     -0.28714814	      0.00000000	     -1.38263714	      0.00000000	      0.00000000	      0.00000000	      0.00000000	      0.00000000	      0.00000000	      0.00000000	      0.00000000	      0.00000000	      0.00000000
      0.31400000	      0.13373723	    261.59029454	     33.69726539	      0.09670120	     -0.00200000	     -0.28744410	      0.00000000	     -1.32590347	      0.00000000	      0.00000000	      0.00000000	      0.00000000	      0.00000000	      0.00000000	      0.00000000	      0.00000000	      0.00000000	      0.00000000
      0.31500000	      0.01048208	    263.37886229	     33.37201923	      0.09866955	     -0.00200000	     -0.28772687	      0.00000000	     -1.26940934	      0.00000000	      0.00000000	      0.00000000	      0.00000000	      0.00000000	      0.00000000	      0.00000000	      0.00000000	      0.00000000	      0.00000000
      0.31600000	     -0.10250542	    265.32586664	     33.04556012	      0.10063913	     -0.00200000	     -0.28799897	      0.00000000	     -1.21321337	      0.00000000	      0.00000000	      0.00000000	      0.00000000	      0.00000000	      0.00000000	      0.00000000	      0.00000000	      0.00000000	      0.00000000
      0.31700000	     -0.20032590	    267.47234166	     32.71927536	      0.10260559	     -0.00200000	     -0.28825763	      0.00000000	     -1.15750984	      0.00000000	      0.00000000	      0.00000000	      0.00000000	      0.00000000	      0.00000000	      0.00000000	      0.00000000	      0.00000000	      0.00000000
      0.31800000	     -0.28411244	    269.77943256	     32.39448965	      0.10456588	     -0.00200000	     -0.28850546	      0.00000000	     -1.10228661	      0.00000000	      0.00000000	      0.00000000	      0.00000000	      0.00000000	      0.00000000	      0.00000000	      0.00000000	      0.00000000	      0.00000000
      0.31900000	     -0.34794053	    272.28838764	     32.07325935	      0.10651383	     -0.00200000	     -0.28873976	     -0.00000000	     -1.04775978	      0.00000000	      0.00000000	      0.00000000	      0.00000000	      0.00000000	      0.00000000	      0.00000000	      0.00000000	      0.00000000	      0.00000000
      0.32000000	     -0.39384865	    274.95963499	     31.75620735	      0.10844833	     -0.00200000	     -0.28896324	      0.00000000	     -0.99385451	      0.00000000	      0.00000000	      0.00000000	      0.00000000	      0.00000000	      0.00000000	      0.00000000	      0.00000000	      0.00000000	      0.00000000
      0.32100000	     -0.41490058	    277.83457190	     31.44600838	      0.11036168	     -0.00200000	     -0.28917329	      0.00000000	     -0.94079231	      0.00000000	      0.00000000	      0.00000000	      0.00000000	      0.00000000	      0.00000000	      0.00000000	      0.00000000	      0.00000000	      0.00000000
      0.32200000	     -0.41410199	    280.87293729	     31.14256561	      0.11225477	     -0.00200000	     -0.28937268	      0.00000000	     -0.88844700	      0.00000000	      0.00000000	      0.00000000	      0.00000000	      0.00000000	      0.00000000	      0.00000000	      0.00000000	      0.00000000	      0.00000000
      0.32300000	     -0.38354004	    284.11606327	     30.84909022	      0.11411855	     -0.00200000	     -0.28955890	      0.00000000	     -0.83703430	     -0.00000000	      0.00000000	      0.00000000	      0.00000000	      0.00000000	      0.00000000	      0.00000000	      0.00000000	      0.00000000	      0.00000000
      0.32400000	     -0.32721579	    287.52317652	     30.56476414	      0.11595587	     -0.00200000	     -0.28973472	      0.00000000	     -0.78638918	      0.00000000	      0.00000000	      0.00000000	      0.00000000	      0.00000000	      0.00000000	      0.00000000	      0.00000000	      0.00000000	      0.00000000
      0.32500000	     -0.23626726	    291.13528319	     30.29326349	      0.11775658	     -0.00200000	     -0.28989776	      0.00000000	     -0.73671651	      0.00000000	      0.00000000	      0.00000000	      0.00000000	      0.00000000	      0.00000000	      0.00000000	      0.00000000	      0.00000000	      0.00000000
      0.32600000	     -0.11569947	    294.91124675	     30.03307879	      0.11952539	     -0.00200000	     -0.29005077	      0.00000000	     -0.68782545	      0.00000000	      0.00000000	      0.00000000	      0.00000000	      0.00000000	      0.00000000	      0.00000000	      0.00000000	      0.00000000	      0.00000000
      0.32700000	      0.04425824	    298.89159836	     29.78826314	      0.12125135	     -0.00200000	     -0.29019152	      0.00000000	     -0.63990428	     -0.00000000	      0.00000000	      0.00000000	      0.00000000	      0.00000000	      0.00000000	      0.00000000	      0.00000000	      0.00000000	      0.00000000
      0.32800000	      0.23758609	    303.03495005	     29.55664694	      0.12294088	     -0.00200000	     -0.29032268	      0.00000000	     -0.59274623	      0.00000000	      0.00000000	      0.00000000	      0.00000000	      0.00000000	      0.00000000	      0.00000000	      0.00000000	      0.00000000	      0.00000000
      0.32900000	      0.47488024	    307.38116242	     29.34256196	      0.12458249	     -0.00200000	     -0.29044216	      0.00000000	     -0.54652516	      0.00000000	      0.00000000	      0.00000000	      0.00000000	      0.00000000	      0.00000000	      0.00000000	      0.00000000	      0.00000000	      0.00000000
      0.33000000	      0.74909025	    311.88877299	     29.14324403	      0.12618415	     -0.00200000	     -0.29055255	      0.00000000	     -0.50103400	      0.00000000	      0.00000000	      0.00000000	      0.00000000	      0.00000000	      0.00000000	      0.00000000	      0.00000000	      0.00000000	      0.00000000
      0.33100000	      1.07152582	    316.59675762	     28.96321416	      0.12773415	     -0.00200000	     -0.29065191	      0.00000000	     -0.45643233	      0.00000000	      0.00000000	      0.00000000	      0.00000000	      0.00000000	      0.00000000	      0.00000000	      0.00000000	      0.00000000	      0.00000000
      0.33200000	      1.43412696	    321.46368176	     28.79918814	      0.12924167	     -0.00200000	     -0.29074270	      0.00000000	     -0.41252173	      0.00000000	      0.00000000	      0.00000000	      0.00000000	      0.00000000	      0.00000000	      0.00000000	      0.00000000	      0.00000000	      0.00000000
